<svg viewBox="0 0 693 123" xmlns="http://www.w3.org/2000/svg" fill-rule="evenodd" clip-rule="evenodd" stroke-linejoin="round" stroke-miterlimit="1.414"><path fill="none" d="M0 0h693v123H0z"/><path fill="none" d="M.382.803h340.936v121.686H.382z"/><path d="M391.767 81.148c2.241 1.424 4.862 2.241 8.412 2.241 4.701 0 8.576-2.407 8.576-7.809 0-7.489-17.477-8.414-17.477-18.412 0-6.115 5.351-9.941 12.071-9.941 1.858 0 4.858.274 7.481 1.257l-.601 3.442c-1.69-.933-4.366-1.421-6.935-1.421-3.934 0-8.249 1.638-8.249 6.555 0 7.647 17.478 7.701 17.478 18.848 0 7.695-6.607 10.759-12.506 10.759-3.715 0-6.612-.765-8.63-1.64l.38-3.879zM438.414 85.133c-2.403.987-5.519 1.534-8.084 1.534-9.231 0-12.674-6.229-12.674-14.585 0-8.52 4.699-14.587 11.745-14.587 7.867 0 11.087 6.335 11.087 13.822v1.746h-19.062c0 5.897 3.17 10.652 9.179 10.652 2.509 0 6.169-1.035 7.809-2.074v3.492zm-1.692-15.019c0-4.858-1.968-9.666-7.104-9.666-5.078 0-8.192 5.076-8.192 9.666h15.296zM465.177 61.868c-1.856-.819-4.097-1.422-5.955-1.422-6.718 0-10.486 4.862-10.486 11.636 0 6.335 3.823 11.635 10.104 11.635 2.186 0 4.207-.492 6.283-1.259l.327 3.226c-2.349.819-4.534.979-7.157.979-8.956 0-13.327-6.824-13.327-14.581 0-8.578 5.518-14.585 13.766-14.585a20.8 20.8 0 0 1 6.718 1.093l-.273 3.278zM493.034 79.453c0 2.132 0 4.318.216 6.555h-3.332v-4.97h-.108c-1.145 2.515-3.223 5.629-9.014 5.629-6.88 0-9.502-4.588-9.502-10.709V58.15h3.441v16.937c0 5.244 1.858 8.628 6.609 8.628 6.282 0 8.246-5.516 8.246-10.158V58.15h3.444v21.303zM501.66 64.381c0-3.064 0-4.211-.216-6.229h3.44v5.352h.108c1.258-3.116 3.606-6.007 7.158-6.007a10.2 10.2 0 0 1 2.401.326v3.604c-.709-.218-1.638-.326-2.513-.326-5.462 0-6.938 6.121-6.938 11.145v13.766h-3.44V64.381zM523.292 50.725h-3.441v-4.588h3.441v4.588zm-3.442 7.427h3.438v27.86h-3.438v-27.86zM543.992 61.103h-6.337v18.021c0 2.517.929 4.593 3.714 4.593 1.31 0 2.186-.278 3.168-.655l.218 2.838c-.821.328-2.511.763-4.205.763-6.119 0-6.339-4.205-6.339-9.281V61.103h-5.461V58.15h5.461v-6.715l3.444-1.205v7.92h6.337v2.953zM553.601 50.725h-3.44v-4.588h3.44v4.588zm-3.44 7.427h3.44v27.86h-3.44v-27.86zM580.968 85.133c-2.403.987-5.519 1.534-8.084 1.534-9.231 0-12.673-6.229-12.673-14.585 0-8.52 4.698-14.587 11.744-14.587 7.867 0 11.087 6.335 11.087 13.822v1.746H563.98c0 5.897 3.169 10.652 9.178 10.652 2.511 0 6.17-1.035 7.81-2.074v3.492zm-1.694-15.019c0-4.858-1.967-9.666-7.103-9.666-5.078 0-8.191 5.076-8.191 9.666h15.294zM587.465 81.967c2.075 1.038 4.59 1.75 7.263 1.75 3.28 0 6.175-1.802 6.175-4.971 0-6.614-13.382-5.571-13.382-13.655 0-5.52 4.478-7.594 9.065-7.594 1.476 0 4.425.326 6.884 1.257l-.328 3.006c-1.804-.821-4.261-1.314-6.17-1.314-3.552 0-6.012 1.092-6.012 4.645 0 5.19 13.713 4.532 13.713 13.655 0 5.895-5.518 7.917-9.725 7.917-2.677 0-5.354-.326-7.809-1.312l.326-3.384z" fill="#003974" fill-rule="nonzero"/><path d="M227.672 87.545c12.612 0 22.212-7.332 22.212-19.938 0-12.683-9.6-20.016-22.212-20.016-12.608 0-22.214 7.333-22.214 20.016 0 12.606 9.606 19.938 22.214 19.938m0-9.235c-6.087 0-8.578-5.057-8.578-10.703 0-5.719 2.491-10.778 8.578-10.778 6.084 0 8.577 5.059 8.577 10.778 0 5.646-2.493 10.703-8.577 10.703" fill="#ed1d24" fill-rule="nonzero"/><path d="M248.675 57.711h7.547v15.541c0 9.086 2.862 14.293 14.665 14.293 3.298 0 5.79-.436 8.28-.734l-.437-8.578c-1.319.22-2.713.518-4.031.518-4.182 0-5.279-2.35-5.279-6.967V57.711h9.239v-9.24h-9.239l-.008-13.208-12.967 4.631v8.577h-7.77v9.24zM324.834 86.667h13.196V67.751h.146l10.556 18.916h15.982l-14.369-20.672 13.271-17.522h-14.445l-10.995 16.054h-.146V35.311l-13.196 4.573v46.783zM170.327 86.667h13.196V67.751h.146l10.555 18.916h15.981l-14.368-20.672 13.269-17.522h-14.442l-10.995 16.054h-.146V35.311l-13.196 4.355v47.001zM320.151 86.847c-.593-3.041-.742-6.084-.742-9.125V63.329c0-11.795-8.533-16.025-18.402-16.025-5.714 0-10.682.814-15.432 2.745l.222 9.05c3.71-2.077 8.014-2.894 12.317-2.894 4.823 0 8.757 1.41 8.829 6.676-1.706-.295-4.081-.515-6.232-.515-7.123 0-19.958 1.407-19.958 13.202 0 8.387 6.825 12.169 14.469 12.169 5.489 0 9.198-2.149 12.241-6.974h.149c0 2.006.219 4.011.294 6.084h12.245zm-26.935-12.238c0-3.714 3.563-5.121 8.09-5.121 2.003 0 3.931.146 5.637.221 0 4.524-3.189 9.128-8.234 9.128-3.118 0-5.493-1.561-5.493-4.228" fill="#ed1d24" fill-rule="nonzero"/><path d="M24.833 61.646c0-26.85 25.31-48.618 56.53-48.618 31.22 0 56.527 21.768 56.527 48.618s-25.307 48.616-56.527 48.616c-31.22 0-56.53-21.766-56.53-48.616" fill="#003974" fill-rule="nonzero"/><path d="M74.5 28.755l13.131-4.34.067 70.997-13.246 4.439.048-71.096z" fill="#ed1d24" fill-rule="nonzero"/><path d="M123.872 66.657c-1.23 10.162-6.925 20.416-19.365 20.437-7.263.013-12.937-4.958-16.862-11.045v-7.044c4.916 2.442 9.509 5.06 15.082 5.14 6.871.103 13.078-2.54 15.646-7.488h5.499zm-41.579 6.377C76.586 79.911 71.072 86.94 60.739 86.94c-14.593 0-21.514-14.109-21.514-25.907 0-11.337 5.411-24.756 19.626-24.756 6.165 0 12.106 3.774 15.642 7.764l-.009 9.622c-2.956-1.988-9.579-3.941-13.905-4.015-9.012-.15-16.964 3.759-16.823 12.655.095 6.129 6.162 10.295 12.202 10.295 9.253 0 14.854-8.449 19.539-14.864 1.309-1.678 4.993-6.606 5.567-7.395 5.201-7.269 11.222-13.905 21.555-13.905 12.17 0 19.002 9.809 20.938 19.911h-5.49c-2.209-3.273-6.46-5.279-10.65-5.279-9.562 0-15.276 8.799-20.058 15.276 0 0-3.718 5.07-5.066 6.692" fill="#fff" fill-rule="nonzero"/></svg>